<svg version="1" xmlns="http://www.w3.org/2000/svg" width="1016" height="1016" viewBox="0 0 762.000000 762.000000"><path d="M1.8 104.2C2.9 106 54.3 197 116 306.5c61.7 109.4 116.4 205.3 121.5 213 30.7 46.4 53.5 70.7 87 92.9 50.8 33.6 106.7 50 165 48.3 30.6-1 60.8-6.6 88.5-16.7 25.3-9.1 57.4-27.2 79-44.5 10.8-8.6 29.9-27.4 39.7-39 11.2-13.3 26.3-36 34.4-52 19.4-37.8 29.3-76.7 30.6-120 2.6-88.7-38.7-175.4-109.1-229-12.2-9.3-37.1-25.3-49.1-31.7-25.2-13.2-56.8-21.9-92.2-25.3-13.4-1.3-50.8-1.5-263.5-1.5H-.2l2 3.2zm501.6 128.3c22.5 3.4 39.9 11.8 54.7 26.5 8.4 8.4 10.2 10.7 14.8 20 7.9 16 9.1 23.2 9.1 56.2V362h3.8c8 .1 16 6.1 18.2 13.8.8 2.5 1 21.3.8 58.4l-.3 54.6-3 4.3c-1.6 2.3-4.8 5.2-7 6.3-4 2.1-4.7 2.1-111.3 2.4-76.8.2-108.5-.1-111.5-.9-5.5-1.5-12.1-8.1-13.6-13.6-.8-3-1.1-20.1-.9-57.5l.3-53.3 2.7-4.7c3.1-5.2 10.8-9.8 16.4-9.8h3.2l.5-27.8c.4-29.3.9-32.3 6.1-45.4 7.8-19.3 23-34.5 45.1-45.4 22.2-10.8 47.2-14.6 71.9-10.9z"/><path d="M473.8 280c-19.9 3.2-35.6 12.8-42 25.8l-3.3 6.7v49l52.8.3 52.7.2v-24.3c0-31.5-1.6-37.8-11.4-46.5-10.5-9.2-31.3-14-48.8-11.2z"/></svg>