<svg version="1" xmlns="http://www.w3.org/2000/svg" width="1016" height="1016" viewBox="0 0 762.000000 762.000000"><path d="M1.4 103.2c.8 1.3 51.9 91.8 113.5 201.1 61.7 109.4 114.9 203.2 118.3 208.5 12.6 19.8 31.3 45 44.1 59.4 28.7 32.1 77.6 62.5 122.7 76.1 28.8 8.7 50.8 12 81 12.1 22.8.1 34.2-.9 55.1-5 89.1-17.2 166.3-79.2 202.3-162.5 20.3-46.8 27.6-97.8 21.1-147.4-8-61.2-36.3-118.6-79.9-162.1-17.7-17.6-30-27-59.6-45.9-32-20.4-69.6-31.9-114.9-35.5-8.9-.6-98.1-1-259.3-1H0l1.4 2.2zM504 232.5c27.8 4.2 51.3 18.3 64.7 38.7 5 7.7 7.5 13.3 10.5 23.3 1.9 6.2 2.2 10.4 2.7 37l.6 30 4.6.6c7.8 1.1 12.8 4.7 16.3 11.6 1.4 2.8 1.6 9.5 1.6 58.5v55.3l-2.3 4c-1.2 2.1-4.2 5.3-6.5 7l-4.4 3-108.1.3c-77 .2-109.3 0-112-.8-2.1-.6-5.6-2.7-7.7-4.6-7.2-6.5-7.1-5.3-6.8-65.9.3-52.5.4-54.1 2.4-58 2.9-5.5 9-9.7 15.2-10.3l5-.4.5-28.2c.4-25.1.6-28.9 2.6-35.4 10.3-34.9 42.4-60 84.6-66.1 9.5-1.4 26.2-1.2 36.5.4z"/><path d="M475.2 280c-21.2 2.9-39.1 14.1-44.1 27.5-1.9 5.1-2.1 7.6-2.1 30V362h105.2l-.4-26.8-.3-26.7-3.3-6.7c-5-10.2-13.9-16.7-27.4-20.2-7.6-1.9-19.9-2.6-27.6-1.6z"/></svg>